# Alias OBJ Model File
# Exported from SketchUp, (c) 2000-2012 Trimble Navigation Limited
# File units = centimeters

mtllib incendio3.mtl

g Mesh1 Componente_1_1 Model

usemtl orti
v 45 4.26326e-14 7.21911e-14
vt -1 0.5
vn 1.60425e-15 1.64071e-15 -1
v 45 -55 7.21911e-14
vt -1 6.56283e-16
v -45 -55 -2.52669e-13
vt 6.43403e-30 -5.38384e-30
v -45 55 1.08287e-13
vt 0 1
v 45 55 7.21911e-14
vt -1 1
f 1/1/1 2/2/1 3/3/1 4/4/1 5/5/1 

usemtl Color_M00
vt 1.20792e-13 2.84217e-14
vn 1 2.84895e-33 3.00796e-15
vt 1.20792e-13 21.6535
vt 1.20792e-13 43.3071
v 45 55 3
vt -1.1811 43.3071
v 45 -55 3
vt -1.1811 2.4869e-14
f 2/6/2 1/7/2 5/8/2 6/9/2 7/10/2 

vt 35.4331 8.52651e-14
vn 6.58025e-31 1 1.64071e-15
vt -2.84972e-29 7.10543e-14
v -45 55 3
vt -3.55271e-15 -1.1811
vt 35.4331 -1.1811
f 5/11/3 4/12/3 8/13/3 6/14/3 

vt 0 43.3071
vn -1 5.2642e-30 -1.60425e-15
vt -1.42109e-13 -1.20012e-57
v -45 -55 3
vt 1.1811 -3.55271e-15
vt 1.1811 43.3071
f 4/15/4 3/16/4 9/17/4 8/18/4 

vt 0 1.42109e-13
vn 8.02124e-16 -1 -1.64071e-15
vt -35.4331 1.42109e-14
vt -35.4331 -1.1811
vt 3.55271e-15 -1.1811
f 3/19/5 2/20/5 7/21/5 9/22/5 

usemtl incendio
vt -1 -1
vn -1.60425e-15 -1.64071e-15 1
vt 4.44089e-15 -1
vt 4.44089e-15 1.33227e-15
vt -1 1.33227e-15
f 9/23/6 7/24/6 6/25/6 8/26/6 

